<?xml version="1.0" encoding="UTF-8"?>
<!-- Created with Inkscape (http://www.inkscape.org/) -->
<svg width="128" height="128" version="1.1" viewBox="0 0 33.866 33.866" xmlns="http://www.w3.org/2000/svg" xmlns:cc="http://creativecommons.org/ns#" xmlns:dc="http://purl.org/dc/elements/1.1/" xmlns:rdf="http://www.w3.org/1999/02/22-rdf-syntax-ns#">
 <metadata>
  <rdf:RDF>
   <cc:Work rdf:about="">
    <dc:format>image/svg+xml</dc:format>
    <dc:type rdf:resource="http://purl.org/dc/dcmitype/StillImage"/>
   </cc:Work>
  </rdf:RDF>
 </metadata>
 <g transform="matrix(.5 0 0 .5 0 -80.765)">
  <rect y="161.53" width="67.733" height="67.733" fill="#e3eaf7" style="paint-order:stroke markers fill"/>
  <g transform="matrix(5.08,0,0,5.08,-27.093,141.58)" fill="#fff">
   <path d="m7.3088 9.8562h0.98242c0.11567 0 0.20879 0.093121 0.20879 0.20879v0.98242c0 0.11567-0.093121 0.20879-0.20879 0.20879h-0.98242c-0.11567 0-0.20879-0.09312-0.20879-0.20879v-0.98242c0-0.11567 0.093121-0.20879 0.20879-0.20879z" style="paint-order:stroke markers fill"/>
   <path d="m9.4088 9.8563h0.98242c0.11567 0 0.20879 0.093121 0.20879 0.20879v0.98242c0 0.11567-0.09312 0.20879-0.20879 0.20879h-0.98242c-0.11567 0-0.20879-0.09312-0.20879-0.20879v-0.98242c0-0.11567 0.093121-0.20879 0.20879-0.20879z" style="paint-order:stroke markers fill"/>
   <path d="m11.509 9.8563h0.98242c0.11567 0 0.20879 0.093121 0.20879 0.20879v0.98242c0 0.11567-0.09312 0.20879-0.20879 0.20879h-0.98242c-0.11567 0-0.20879-0.09312-0.20879-0.20879v-0.98242c0-0.11567 0.09312-0.20879 0.20879-0.20879z" style="paint-order:stroke markers fill"/>
   <path d="m13.609 9.8563h0.98242c0.11567 0 0.20879 0.093121 0.20879 0.20879v0.98242c0 0.11567-0.09312 0.20879-0.20879 0.20879h-0.98242c-0.11567 0-0.20879-0.09312-0.20879-0.20879v-0.98242c0-0.11567 0.09312-0.20879 0.20879-0.20879z" style="paint-order:stroke markers fill"/>
   <path d="m15.709 9.8563h0.98242c0.11567 0 0.20879 0.093121 0.20879 0.20879v0.98242c0 0.11567-0.09312 0.20879-0.20879 0.20879h-0.98242c-0.11567 0-0.20879-0.09312-0.20879-0.20879v-0.98242c0-0.11567 0.09312-0.20879 0.20879-0.20879z" style="paint-order:stroke markers fill"/>
   <path d="m7.3088 11.956h0.98242c0.11567 0 0.20879 0.09312 0.20879 0.20879v0.98242c0 0.11567-0.093121 0.20879-0.20879 0.20879h-0.98242c-0.11567 0-0.20879-0.09312-0.20879-0.20879v-0.98242c0-0.11567 0.093121-0.20879 0.20879-0.20879z" style="paint-order:stroke markers fill"/>
   <path d="m9.4088 11.956h0.98242c0.11567 0 0.20879 0.09312 0.20879 0.20879v0.98242c0 0.11567-0.09312 0.20879-0.20879 0.20879h-0.98242c-0.11567 0-0.20879-0.09312-0.20879-0.20879v-0.98242c0-0.11567 0.093121-0.20879 0.20879-0.20879z" style="paint-order:stroke markers fill"/>
   <path d="m11.509 11.956h0.98242c0.11567 0 0.20879 0.09312 0.20879 0.20879v0.98242c0 0.11567-0.09312 0.20879-0.20879 0.20879h-0.98242c-0.11567 0-0.20879-0.09312-0.20879-0.20879v-0.98242c0-0.11567 0.09312-0.20879 0.20879-0.20879z" style="paint-order:stroke markers fill"/>
   <path d="m13.609 11.956h0.98242c0.11567 0 0.20879 0.09312 0.20879 0.20879v0.98242c0 0.11567-0.09312 0.20879-0.20879 0.20879h-0.98242c-0.11567 0-0.20879-0.09312-0.20879-0.20879v-0.98242c0-0.11567 0.09312-0.20879 0.20879-0.20879z" style="paint-order:stroke markers fill"/>
   <path d="m15.709 11.956h0.98242c0.11567 0 0.20879 0.09312 0.20879 0.20879v0.98242c0 0.11567-0.09312 0.20879-0.20879 0.20879h-0.98242c-0.11567 0-0.20879-0.09312-0.20879-0.20879v-0.98242c0-0.11567 0.09312-0.20879 0.20879-0.20879z" style="paint-order:stroke markers fill"/>
   <path d="m8.4713 14.1h7.0574c0.11567 0 0.20879 0.09312 0.20879 0.20879v0.98242c0 0.11567-0.09312 0.20879-0.20879 0.20879h-7.0574c-0.11567 0-0.20879-0.09312-0.20879-0.20879v-0.98242c0-0.11567 0.093121-0.20879 0.20879-0.20879z" style="paint-order:stroke markers fill"/>
  </g>
 </g>
</svg>
