<?xml version="1.0" encoding="UTF-8"?>
<!-- Created with Inkscape (http://www.inkscape.org/) -->
<svg width="256" height="256" version="1.1" viewBox="0 0 67.733 67.733" xmlns="http://www.w3.org/2000/svg" xmlns:cc="http://creativecommons.org/ns#" xmlns:dc="http://purl.org/dc/elements/1.1/" xmlns:rdf="http://www.w3.org/1999/02/22-rdf-syntax-ns#" xmlns:xlink="http://www.w3.org/1999/xlink">
 <defs>
  <filter id="filter888" x="-.074131" y="-.085714" width="1.1792" height="1.1714" color-interpolation-filters="sRGB">
   <feFlood flood-color="rgb(0,0,0)" flood-opacity=".25" result="flood"/>
   <feComposite in="flood" in2="SourceGraphic" operator="in" result="composite1"/>
   <feGaussianBlur in="composite1" result="blur" stdDeviation="0.5"/>
   <feOffset dx="0.5" dy="0" result="offset"/>
   <feComposite in="SourceGraphic" in2="offset" result="composite2"/>
  </filter>
  <linearGradient id="linearGradient7321" x1="40.229" x2="48.758" y1="209.66" y2="250.43" gradientTransform="translate(0 -21.167)" gradientUnits="userSpaceOnUse">
   <stop stop-color="#0f2a68" stop-opacity=".13" offset="0"/>
   <stop stop-color="#0f2967" stop-opacity="0" offset="1"/>
  </linearGradient>
  <linearGradient id="linearGradient1284" x1="37.281" x2="23.588" y1="189.02" y2="172.94" gradientUnits="userSpaceOnUse">
   <stop offset="0"/>
   <stop stop-color="#323232" stop-opacity=".72963" offset="1"/>
  </linearGradient>
  <clipPath id="clipPath2477">
   <path d="m33.867 205.81 24.144 23.46h9.7231v-67.733h-25.859l-8.0075 23.429z" fill="#e1e1e1"/>
  </clipPath>
 </defs>
 <metadata>
  <rdf:RDF>
   <cc:Work rdf:about="">
    <dc:format>image/svg+xml</dc:format>
    <dc:type rdf:resource="http://purl.org/dc/dcmitype/StillImage"/>
   </cc:Work>
  </rdf:RDF>
 </metadata>
 <g transform="translate(0 -161.53)">
  <rect x="33.867" y="161.53" width="33.867" height="67.733" clip-path="url(#clipPath2477)" fill="url(#linearGradient7321)" style="paint-order:stroke markers fill"/>
  <g transform="matrix(.8 0 0 .8 6.7733 40.653)">
   <path transform="matrix(0 2.2578 -2.2578 0 60.96 156.14)" d="m17.63 5.84c-0.36-0.51-0.96-0.84-1.63-0.84l-8.1875 0.01c-1.1 0-2 0.89-2 1.99v10c0 1.1 0.9 1.99 2 1.99l8.1875 0.01c0.67 0 1.27-0.33 1.63-0.84l4.37-6.16z" fill="#fdfdfd" filter="url(#filter888)"/>
   <path d="m31.532 176.42c-0.87276 0.0115-1.619 0.20094-2.2391 0.56844-0.60863 0.36747-1.1026 0.87816-1.4816 1.5327l-0.08578-1.757h-2.8598v5.1e-4h-1.5875v1.9472h1.5875v12.097h-1.5875v1.9472h6.2069v-1.9472h-1.5875v-10.238c0.0689-0.18374 0.15503-0.35599 0.25838-0.51676 0.11484-0.16077 0.24707-0.30415 0.39636-0.43047 0.19522-0.16077 0.43029-0.28134 0.7059-0.36173 0.28709-0.0919 0.62046-0.13798 0.99942-0.13798 0.34451 0 0.64291 0.0461 0.89555 0.13798 0.26412 0.0804 0.48249 0.2121 0.65474 0.39584 0.18374 0.19522 0.31546 0.44247 0.39584 0.74104 0.09187 0.29858 0.13798 0.64309 0.13798 1.0335v11.324h4.6194v-1.9472h-1.5875v-9.7043c0.03445-0.28709 0.10336-0.54548 0.20671-0.77515 0.10335-0.24115 0.24673-0.45343 0.43046-0.63717 0.18374-0.17225 0.41324-0.31006 0.68885-0.41341 0.27561-0.10335 0.60289-0.15503 0.98185-0.15503 0.35599 0 0.66605 0.0461 0.93018 0.13798 0.27561 0.0919 0.50562 0.22967 0.68936 0.41341 0.17226 0.19523 0.30397 0.44195 0.39584 0.74052 0.09187 0.29857 0.13798 0.64308 0.13798 1.0335v11.307h4.6194v-1.9472h-1.5875v-9.325c0-0.89573-0.10335-1.6709-0.31006-2.3254-0.20671-0.66605-0.50562-1.2061-0.89607-1.6195-0.35599-0.36747-0.7922-0.64308-1.309-0.82682-0.51676-0.19523-1.0969-0.29249-1.7399-0.29249-0.47083 0.0115-0.90704 0.0743-1.309 0.18914-0.39044 0.11483-0.74661 0.26987-1.0682 0.46509-0.25264 0.17226-0.48771 0.37339-0.7059 0.60306s-0.40767 0.4764-0.56844 0.74052c-0.12632-0.28709-0.28135-0.54547-0.46509-0.77514-0.17226-0.22967-0.36782-0.42473-0.58601-0.5855-0.29858-0.20671-0.64865-0.36173-1.0506-0.46508-0.39044-0.11484-0.83274-0.17209-1.3265-0.17209z" fill="url(#linearGradient1284)" stroke-width=".26458"/>
  </g>
 </g>
</svg>
