<?xml version="1.0" encoding="UTF-8"?>
<!-- Created with Inkscape (http://www.inkscape.org/) -->
<svg width="256" height="256" version="1.1" viewBox="0 0 67.733 67.733" xmlns="http://www.w3.org/2000/svg" xmlns:cc="http://creativecommons.org/ns#" xmlns:dc="http://purl.org/dc/elements/1.1/" xmlns:rdf="http://www.w3.org/1999/02/22-rdf-syntax-ns#" xmlns:xlink="http://www.w3.org/1999/xlink">
 <defs>
  <clipPath id="clipPath1252">
   <rect x="8.8066" y="10.192" width="6.8807" height="1.4552" stroke-opacity=".8" stroke-width=".75185" style="paint-order:stroke markers fill"/>
  </clipPath>
  <clipPath id="clipPath1256">
   <rect x="8.8066" y="10.192" width="6.8807" height="1.4552" stroke-opacity=".8" stroke-width=".75185" style="paint-order:stroke markers fill"/>
  </clipPath>
  <clipPath id="clipPath1260">
   <rect x="8.8066" y="10.192" width="6.8807" height="1.4552" stroke-opacity=".8" stroke-width=".75185" style="paint-order:stroke markers fill"/>
  </clipPath>
 </defs>
 <metadata>
  <rdf:RDF>
   <cc:Work rdf:about="">
    <dc:format>image/svg+xml</dc:format>
    <dc:type rdf:resource="http://purl.org/dc/dcmitype/StillImage"/>
   </cc:Work>
  </rdf:RDF>
 </metadata>
 <g transform="translate(0 -161.53)">
  <g transform="matrix(.7 0 0 .7 10.16 59.048)">
   <path transform="matrix(0 2.2578 -2.2578 0 60.96 156.14)" d="m5.8124 17c0 1.1 0.89997 1.9901 2 1.9901l8.1876 0.0098c0.67 0 1.2701-0.33 1.6301-0.84l4.37-6.1599-4.37-6.1599c-0.36-0.51-0.9601-0.84-1.6301-0.84l-8.1876 0.00984c-1.1 0-2 0.89013-2 1.9901zm3.1707-3.9661c0-0.21871 0.025353-0.41461 0.076218-0.58754 0.045775-0.17802 0.11444-0.33307 0.20599-0.46532 0.071207-0.096639 0.1576-0.18326 0.25932-0.25955 0.10172-0.081381 0.21617-0.15004 0.34332-0.20599-0.11698-0.071208-0.22626-0.15513-0.32799-0.25177s-0.19081-0.20076-0.26711-0.31265c-0.086466-0.14241-0.15513-0.30017-0.20599-0.4731-0.050864-0.17802-0.078677-0.37122-0.083771-0.57976 0-0.28483 0.043077-0.54176 0.12955-0.77065 0.081381-0.22888 0.20345-0.42208 0.36621-0.57976 0.1831-0.17293 0.42231-0.30533 0.71732-0.39688 0.28992-0.091553 0.63324-0.13733 1.03-0.13733h4.1302v-0.70312h0.86243v2.046h-5.0079c-0.17294 0-0.32552 0.020421-0.45776 0.061111-0.13224 0.04069-0.24152 0.09903-0.32799 0.17532-0.08138 0.08138-0.1424 0.18326-0.18311 0.30533-0.04069 0.11698-0.06111 0.25431-0.06111 0.41199 0 0.16785 0.02289 0.3128 0.06866 0.43488 0.04578 0.12207 0.10681 0.22372 0.18311 0.3051 0.08138 0.08138 0.1754 0.14488 0.28221 0.19066 0.10172 0.04577 0.21617 0.07629 0.34332 0.09155h4.2982v-0.70312h0.86243v2.046h-5.0155c-0.17293 0-0.32552 0.02042-0.45776 0.06111-0.13224 0.0356-0.24175 0.09394-0.32822 0.17532-0.08138 0.07629-0.13971 0.17301-0.17532 0.28999-0.04069 0.1119-0.06111 0.24406-0.06111 0.39665 0 0.16785 0.02041 0.3155 0.06111 0.44266 0.03561 0.12207 0.08901 0.22619 0.16022 0.31265 0.05595 0.06612 0.11945 0.12469 0.19066 0.17555 0.07121 0.04578 0.1475 0.08392 0.22888 0.11444h4.5346v-0.70312h0.86243v2.7491h-0.86243v-0.70312h-5.3581v0.70312h-0.86243v-0.70312h-2.289e-4v-1.2666l0.7782-0.038c-0.28992-0.16784-0.51611-0.38663-0.67886-0.6562-0.16277-0.27466-0.24668-0.60519-0.25177-0.99174z"/>
   <g transform="matrix(5.08 0 0 5.08 -27.093 141.58)">
    <path d="m7.3088 9.8562h0.98242c0.11567 0 0.20879 0.093121 0.20879 0.20879v0.98242c0 0.11567-0.093121 0.20879-0.20879 0.20879h-0.98242c-0.11567 0-0.20879-0.09312-0.20879-0.20879v-0.98242c0-0.11567 0.093121-0.20879 0.20879-0.20879z" style="paint-order:stroke markers fill"/>
    <path d="m9.4088 9.8563h0.98242c0.11567 0 0.20879 0.093121 0.20879 0.20879v0.98242c0 0.11567-0.09312 0.20879-0.20879 0.20879h-0.98242c-0.11567 0-0.20879-0.09312-0.20879-0.20879v-0.98242c0-0.11567 0.093121-0.20879 0.20879-0.20879z" clip-path="url(#clipPath1260)" style="paint-order:stroke markers fill"/>
    <path d="m11.509 9.8563h0.98242c0.11567 0 0.20879 0.093121 0.20879 0.20879v0.98242c0 0.11567-0.09312 0.20879-0.20879 0.20879h-0.98242c-0.11567 0-0.20879-0.093121-0.20879-0.20879v-0.98242c0-0.11567 0.09312-0.20879 0.20879-0.20879z" clip-path="url(#clipPath1256)" style="paint-order:stroke markers fill"/>
    <path d="m13.609 9.8563h0.98242c0.11567 0 0.20879 0.093121 0.20879 0.20879v0.98242c0 0.11567-0.09312 0.20879-0.20879 0.20879h-0.98242c-0.11567 0-0.20879-0.09312-0.20879-0.20879v-0.98242c0-0.11567 0.09312-0.20879 0.20879-0.20879z" clip-path="url(#clipPath1252)" style="paint-order:stroke markers fill"/>
    <path d="m15.709 9.8563h0.98242c0.11567 0 0.20879 0.093121 0.20879 0.20879v0.98242c0 0.11567-0.09312 0.20879-0.20879 0.20879h-0.98242c-0.11567 0-0.20879-0.093121-0.20879-0.20879v-0.98242c0-0.11567 0.09312-0.20879 0.20879-0.20879z" style="paint-order:stroke markers fill"/>
    <path d="m7.3088 11.956h0.98242c0.11567 0 0.20879 0.09312 0.20879 0.20879v0.98242c0 0.11567-0.093121 0.20879-0.20879 0.20879h-0.98242c-0.11567 0-0.20879-0.09312-0.20879-0.20879v-0.98242c0-0.11567 0.093121-0.20879 0.20879-0.20879z" style="paint-order:stroke markers fill"/>
    <path d="m9.4088 11.956h0.98242c0.11567 0 0.20879 0.09312 0.20879 0.20879v0.98242c0 0.11567-0.09312 0.20879-0.20879 0.20879h-0.98242c-0.11567 0-0.20879-0.09312-0.20879-0.20879v-0.98242c0-0.11567 0.093121-0.20879 0.20879-0.20879z" style="paint-order:stroke markers fill"/>
    <path d="m11.509 11.956h0.98242c0.11567 0 0.20879 0.09312 0.20879 0.20879v0.98242c0 0.11567-0.09312 0.20879-0.20879 0.20879h-0.98242c-0.11567 0-0.20879-0.093121-0.20879-0.20879v-0.98242c0-0.11567 0.09312-0.20879 0.20879-0.20879z" style="paint-order:stroke markers fill"/>
    <path d="m13.609 11.956h0.98242c0.11567 0 0.20879 0.09312 0.20879 0.20879v0.98242c0 0.11567-0.09312 0.20879-0.20879 0.20879h-0.98242c-0.11567 0-0.20879-0.09312-0.20879-0.20879v-0.98242c0-0.11567 0.09312-0.20879 0.20879-0.20879z" style="paint-order:stroke markers fill"/>
    <path d="m15.709 11.956h0.98242c0.11567 0 0.20879 0.09312 0.20879 0.20879v0.98242c0 0.11567-0.09312 0.20879-0.20879 0.20879h-0.98242c-0.11567 0-0.20879-0.093121-0.20879-0.20879v-0.98242c0-0.11567 0.09312-0.20879 0.20879-0.20879z" style="paint-order:stroke markers fill"/>
    <path d="m8.4713 14.1h7.0574c0.11567 0 0.20879 0.09312 0.20879 0.20879v0.98242c0 0.11567-0.093121 0.20879-0.20879 0.20879h-7.0574c-0.11567 0-0.20879-0.093121-0.20879-0.20879v-0.98242c0-0.11567 0.093121-0.20879 0.20879-0.20879z" style="paint-order:stroke markers fill"/>
   </g>
  </g>
 </g>
</svg>
