<?xml version="1.0" encoding="UTF-8" standalone="no"?>
<!-- Created with Inkscape (http://www.inkscape.org/) -->

<svg
   width="256"
   height="256"
   viewBox="0 0 67.73333 67.733335"
   version="1.1"
   id="svg3719"
   sodipodi:docname="Mboard.svg"
   inkscape:version="1.2.2 (b0a84865, 2022-12-01)"
   inkscape:export-filename="Mboard.png"
   inkscape:export-xdpi="192"
   inkscape:export-ydpi="192"
   xmlns:inkscape="http://www.inkscape.org/namespaces/inkscape"
   xmlns:sodipodi="http://sodipodi.sourceforge.net/DTD/sodipodi-0.dtd"
   xmlns:xlink="http://www.w3.org/1999/xlink"
   xmlns="http://www.w3.org/2000/svg"
   xmlns:svg="http://www.w3.org/2000/svg"
   xmlns:rdf="http://www.w3.org/1999/02/22-rdf-syntax-ns#"
   xmlns:cc="http://creativecommons.org/ns#"
   xmlns:dc="http://purl.org/dc/elements/1.1/">
  <defs
     id="defs3713">
    <linearGradient
       inkscape:collect="always"
       id="linearGradient5622">
      <stop
         style="stop-color:#000000;stop-opacity:0.1254902;"
         offset="0"
         id="stop5618" />
      <stop
         style="stop-color:#000000;stop-opacity:0;"
         offset="1"
         id="stop5620" />
    </linearGradient>
    <filter
       style="color-interpolation-filters:sRGB"
       inkscape:label="Drop Shadow"
       id="filter5533"
       x="-0.034285715"
       y="-0.048979593"
       width="1.0757143"
       height="1.1081633">
      <feFlood
         flood-opacity="0.498039"
         flood-color="rgb(0,0,0)"
         result="flood"
         id="feFlood5523" />
      <feComposite
         in="flood"
         in2="SourceGraphic"
         operator="in"
         result="composite1"
         id="feComposite5525" />
      <feGaussianBlur
         in="composite1"
         stdDeviation="0.20000000000000001"
         result="blur"
         id="feGaussianBlur5527" />
      <feOffset
         dx="0.1"
         dy="0.1"
         result="offset"
         id="feOffset5529" />
      <feComposite
         in="SourceGraphic"
         in2="offset"
         operator="over"
         result="composite2"
         id="feComposite5531" />
    </filter>
    <filter
       style="color-interpolation-filters:sRGB"
       inkscape:label="Drop Shadow"
       id="filter888"
       x="-0.074131274"
       y="-0.085714286"
       width="1.1791506"
       height="1.1714286">
      <feFlood
         flood-opacity="0.25"
         flood-color="rgb(0,0,0)"
         result="flood"
         id="feFlood878" />
      <feComposite
         in="flood"
         in2="SourceGraphic"
         operator="in"
         result="composite1"
         id="feComposite880" />
      <feGaussianBlur
         in="composite1"
         stdDeviation="0.5"
         result="blur"
         id="feGaussianBlur882" />
      <feOffset
         dx="0.5"
         dy="0"
         result="offset"
         id="feOffset884" />
      <feComposite
         in="SourceGraphic"
         in2="offset"
         operator="over"
         result="composite2"
         id="feComposite886" />
    </filter>
    <linearGradient
       inkscape:collect="always"
       xlink:href="#linearGradient5622"
       id="linearGradient5624"
       x1="36.362003"
       y1="212.81487"
       x2="50.799995"
       y2="250.43333"
       gradientUnits="userSpaceOnUse"
       gradientTransform="translate(0,-21.166667)" />
    <clipPath
       clipPathUnits="userSpaceOnUse"
       id="clipPath7405">
      <path
         style="fill:#e1e1e1;fill-opacity:1;stroke:none;stroke-width:0.264583px;stroke-linecap:butt;stroke-linejoin:miter;stroke-opacity:1"
         d="m 33.866667,205.80691 24.143517,23.45975 h 9.723147 V 161.53333 H 41.87417 l -8.007506,23.42936 z"
         id="path7407"
         sodipodi:nodetypes="ccccccc" />
    </clipPath>
    <clipPath
       clipPathUnits="userSpaceOnUse"
       id="clipPath1252">
      <rect
         style="opacity:1;fill:#000000;fill-opacity:1;stroke-width:0.751849;stroke-opacity:0.8;paint-order:stroke markers fill"
         id="rect1254"
         width="6.8806872"
         height="1.4551845"
         x="8.806613"
         y="10.192004" />
    </clipPath>
    <clipPath
       clipPathUnits="userSpaceOnUse"
       id="clipPath1256">
      <rect
         style="opacity:1;fill:#000000;fill-opacity:1;stroke-width:0.751849;stroke-opacity:0.8;paint-order:stroke markers fill"
         id="rect1258"
         width="6.8806872"
         height="1.4551845"
         x="8.806613"
         y="10.192004" />
    </clipPath>
    <clipPath
       clipPathUnits="userSpaceOnUse"
       id="clipPath1260">
      <rect
         style="opacity:1;fill:#000000;fill-opacity:1;stroke-width:0.751849;stroke-opacity:0.8;paint-order:stroke markers fill"
         id="rect1262"
         width="6.8806872"
         height="1.4551845"
         x="8.806613"
         y="10.192004" />
    </clipPath>
  </defs>
  <sodipodi:namedview
     id="base"
     pagecolor="#ffffff"
     bordercolor="#666666"
     borderopacity="1.0"
     inkscape:pageopacity="0.0"
     inkscape:pageshadow="2"
     inkscape:zoom="2.7166661"
     inkscape:cx="122.20861"
     inkscape:cy="136.3804"
     inkscape:document-units="mm"
     inkscape:current-layer="layer1"
     showgrid="false"
     units="px"
     inkscape:measure-start="0,0"
     inkscape:measure-end="0,0"
     inkscape:snap-page="false"
     inkscape:window-width="2560"
     inkscape:window-height="1295"
     inkscape:window-x="0"
     inkscape:window-y="25"
     inkscape:window-maximized="0"
     inkscape:snap-object-midpoints="true"
     inkscape:showpageshadow="0"
     inkscape:pagecheckerboard="1"
     inkscape:deskcolor="#d1d1d1" />
  <metadata
     id="metadata3716">
    <rdf:RDF>
      <cc:Work
         rdf:about="">
        <dc:format>image/svg+xml</dc:format>
        <dc:type
           rdf:resource="http://purl.org/dc/dcmitype/StillImage" />
      </cc:Work>
    </rdf:RDF>
  </metadata>
  <g
     inkscape:label="Layer 1"
     inkscape:groupmode="layer"
     id="layer1"
     transform="translate(0,-161.53332)">
    <g
       id="g12016"
       transform="matrix(0.56,0,0,0.56,14.901333,86.318316)">
      <path
         id="path5652"
         style="opacity:1;fill:#000000;fill-opacity:1;stroke:none"
         d="m 5.8124172,16.999924 c 0,1.099998 0.8999706,1.990127 1.9999695,1.990127 l 8.1875613,0.0098 c 0.669999,0 1.270096,-0.329997 1.630096,-0.839996 L 22.000085,12 17.630044,5.8401031 c -0.36,-0.5099995 -0.960097,-0.8399963 -1.630096,-0.8399963 l -8.1875613,0.00984 c -1.0999989,0 -1.9999695,0.8901286 -1.9999695,1.9901275 z m 3.1707001,-3.966065 c 0,-0.218709 0.025353,-0.414607 0.076218,-0.58754 C 9.10511,12.2683 9.1737741,12.113245 9.2653286,11.981003 9.3365357,11.884364 9.4229279,11.797745 9.5246517,11.721451 9.6263755,11.64007 9.7408186,11.571406 9.8679745,11.515457 9.7509923,11.444249 9.6417106,11.360326 9.5399868,11.263687 9.438263,11.167048 9.3491779,11.062932 9.2728817,10.951034 9.1864162,10.80862 9.1177477,10.650868 9.066888,10.477936 9.0160239,10.299917 8.9882108,10.106714 8.9831173,9.898178 c 0,-0.2848307 0.043077,-0.5417632 0.1295471,-0.7706451 C 9.1940452,8.8986514 9.3161181,8.7054491 9.4788753,8.5477752 9.66198,8.3748425 9.9011888,8.2424468 10.196191,8.1508941 10.486109,8.0593413 10.829429,8.013565 11.226159,8.013565 h 4.130173 V 7.31044 h 0.862427 v 0.703125 1.3428497 h -0.862427 -4.145508 c -0.172935,0 -0.325523,0.020421 -0.457763,0.061111 -0.132241,0.04069 -0.241518,0.09903 -0.327988,0.1753234 -0.08138,0.08138 -0.142402,0.1832581 -0.183106,0.3053284 -0.04069,0.1169835 -0.06111,0.2543145 -0.06111,0.4119875 0,0.167847 0.02289,0.312805 0.06866,0.434876 0.04578,0.12207 0.106814,0.223719 0.183106,0.305099 0.08138,0.08138 0.175403,0.144882 0.282211,0.190659 0.101724,0.04577 0.216167,0.07629 0.343323,0.09155 h 0.07645 0.07622 4.145508 v -0.703125 h 0.862427 v 0.703125 1.342848 h -0.862427 -4.153061 c -0.172931,0 -0.325519,0.02042 -0.457764,0.06111 -0.13224,0.0356 -0.241751,0.09394 -0.328216,0.175323 -0.08138,0.07629 -0.139713,0.17301 -0.175324,0.289994 -0.04069,0.111898 -0.06111,0.244064 -0.06111,0.396652 0,0.167847 0.02041,0.315501 0.06111,0.442658 0.03561,0.122071 0.08901,0.226186 0.160218,0.312652 0.05595,0.06612 0.119451,0.124689 0.190658,0.175552 0.07121,0.04578 0.147501,0.08392 0.228882,0.114441 h 4.534607 V 13.94046 h 0.862427 v 0.703125 1.34285 0.703125 h -0.86243 V 15.986435 H 9.9982082 V 16.68956 H 9.1357815 v -0.703125 h -2.289e-4 v -1.266632 l 0.7781982,-0.038 C 9.6238333,14.513962 9.3976445,14.295176 9.2348873,14.025604 9.0721168,13.750946 8.9882108,13.420414 8.9831173,13.033859 Z"
         transform="matrix(0,2.2577778,-2.2577778,0,60.96,156.1358)" />
      <g
         id="g3416"
         transform="matrix(5.08,0,0,5.08,-27.093332,141.57845)"
         style="fill:#000000;fill-opacity:1;stroke:none">
        <g
           id="g3388"
           style="fill:#000000;fill-opacity:1;stroke:none">
          <path
             id="rect3365"
             style="fill:#000000;fill-opacity:1;stroke:none;stroke-width:0.5625;stroke-opacity:0.8;paint-order:stroke markers fill"
             d="m 7.3087913,9.8562498 h 0.9824163 c 0.1156706,0 0.2087918,0.093121 0.2087918,0.2087922 v 0.982416 c 0,0.115671 -0.093121,0.208792 -0.2087918,0.208792 H 7.3087913 c -0.1156707,0 -0.2087919,-0.09312 -0.2087919,-0.208792 v -0.982416 c 0,-0.115671 0.093121,-0.2087922 0.2087919,-0.2087922 z" />
          <path
             id="rect3362"
             style="fill:#000000;fill-opacity:1;stroke:none;stroke-width:0.5625;stroke-opacity:0.8;paint-order:stroke markers fill"
             d="m 9.4087917,9.8562508 h 0.9824163 c 0.115671,0 0.208792,0.093121 0.208792,0.2087922 v 0.982416 c 0,0.115671 -0.09312,0.208792 -0.208792,0.208792 H 9.4087917 c -0.1156707,0 -0.2087919,-0.09312 -0.2087919,-0.208792 v -0.982416 c 0,-0.1156711 0.093121,-0.2087922 0.2087919,-0.2087922 z"
             clip-path="url(#clipPath1260)" />
          <path
             id="rect3359"
             style="fill:#000000;fill-opacity:1;stroke:none;stroke-width:0.5625;stroke-opacity:0.8;paint-order:stroke markers fill"
             d="m 11.508792,9.8562508 h 0.982416 c 0.115671,0 0.208792,0.093121 0.208792,0.2087922 v 0.982416 c 0,0.115671 -0.09312,0.208792 -0.208792,0.208792 H 11.508792 C 11.393121,11.256251 11.3,11.16313 11.3,11.047459 v -0.982416 c 0,-0.1156711 0.09312,-0.2087922 0.208792,-0.2087922 z"
             clip-path="url(#clipPath1256)" />
          <path
             id="rect3356"
             style="fill:#000000;fill-opacity:1;stroke:none;stroke-width:0.5625;stroke-opacity:0.8;paint-order:stroke markers fill"
             d="m 13.608792,9.8562508 h 0.982417 c 0.11567,0 0.208792,0.093121 0.208792,0.2087922 v 0.982416 c 0,0.115671 -0.09312,0.208792 -0.208792,0.208792 h -0.982417 c -0.11567,0 -0.208791,-0.09312 -0.208791,-0.208792 v -0.982416 c 0,-0.1156711 0.09312,-0.2087922 0.208791,-0.2087922 z"
             clip-path="url(#clipPath1252)" />
          <path
             id="rect3353"
             style="fill:#000000;fill-opacity:1;stroke:none;stroke-width:0.5625;stroke-opacity:0.8;paint-order:stroke markers fill"
             d="m 15.708792,9.8562508 h 0.982416 c 0.115671,0 0.208792,0.093121 0.208792,0.2087922 v 0.982416 c 0,0.115671 -0.09312,0.208792 -0.208792,0.208792 H 15.708792 C 15.593121,11.256251 15.5,11.16313 15.5,11.047459 v -0.982416 c 0,-0.1156711 0.09312,-0.2087922 0.208792,-0.2087922 z" />
          <path
             id="rect3350"
             style="fill:#000000;fill-opacity:1;stroke:none;stroke-width:0.5625;stroke-opacity:0.8;paint-order:stroke markers fill"
             d="M 7.3087918,11.956249 H 8.291208 c 0.1156707,0 0.2087919,0.09312 0.2087919,0.208792 v 0.982416 c 0,0.115671 -0.093121,0.208792 -0.2087919,0.208792 H 7.3087918 c -0.1156707,0 -0.2087919,-0.09312 -0.2087919,-0.208792 v -0.982416 c 0,-0.115671 0.093121,-0.208792 0.2087919,-0.208792 z" />
          <path
             id="rect3347"
             style="fill:#000000;fill-opacity:1;stroke:none;stroke-width:0.5625;stroke-opacity:0.8;paint-order:stroke markers fill"
             d="m 9.4087917,11.95625 h 0.9824163 c 0.115671,0 0.208792,0.09312 0.208792,0.208792 v 0.982416 c 0,0.115671 -0.09312,0.208792 -0.208792,0.208792 H 9.4087917 c -0.1156707,0 -0.2087919,-0.09312 -0.2087919,-0.208792 v -0.982416 c 0,-0.115671 0.093121,-0.208792 0.2087919,-0.208792 z" />
          <path
             id="rect3344"
             style="fill:#000000;fill-opacity:1;stroke:none;stroke-width:0.5625;stroke-opacity:0.8;paint-order:stroke markers fill"
             d="m 11.508792,11.95625 h 0.982416 c 0.115671,0 0.208792,0.09312 0.208792,0.208792 v 0.982416 c 0,0.115671 -0.09312,0.208792 -0.208792,0.208792 H 11.508792 C 11.393121,13.35625 11.3,13.263129 11.3,13.147458 v -0.982416 c 0,-0.115671 0.09312,-0.208792 0.208792,-0.208792 z" />
          <path
             id="rect3341"
             style="fill:#000000;fill-opacity:1;stroke:none;stroke-width:0.5625;stroke-opacity:0.8;paint-order:stroke markers fill"
             d="m 13.608792,11.95625 h 0.982417 c 0.11567,0 0.208792,0.09312 0.208792,0.208792 v 0.982416 c 0,0.115671 -0.09312,0.208792 -0.208792,0.208792 h -0.982417 c -0.11567,0 -0.208791,-0.09312 -0.208791,-0.208792 v -0.982416 c 0,-0.115671 0.09312,-0.208792 0.208791,-0.208792 z" />
          <path
             id="rect3338"
             style="fill:#000000;fill-opacity:1;stroke:none;stroke-width:0.5625;stroke-opacity:0.8;paint-order:stroke markers fill"
             d="m 15.708792,11.95625 h 0.982416 c 0.115671,0 0.208792,0.09312 0.208792,0.208792 v 0.982416 c 0,0.115671 -0.09312,0.208792 -0.208792,0.208792 H 15.708792 C 15.593121,13.35625 15.5,13.263129 15.5,13.147458 v -0.982416 c 0,-0.115671 0.09312,-0.208792 0.208792,-0.208792 z" />
        </g>
        <path
           id="rect3335"
           style="fill:#000000;fill-opacity:1;stroke:none;stroke-width:0.5625;stroke-opacity:0.8;paint-order:stroke markers fill"
           d="m 8.4712917,14.1 h 7.0574163 c 0.115671,0 0.208792,0.09312 0.208792,0.208792 v 0.982416 C 15.7375,15.406879 15.644379,15.5 15.528708,15.5 H 8.4712917 C 8.355621,15.5 8.2624998,15.406879 8.2624998,15.291208 V 14.308792 C 8.2624998,14.193122 8.355621,14.1 8.4712917,14.1 Z" />
      </g>
    </g>
  </g>
</svg>
