<?xml version="1.0" encoding="UTF-8" standalone="no"?>
<!-- Created with Inkscape (http://www.inkscape.org/) -->

<svg
   width="256"
   height="256"
   viewBox="0 0 67.73333 67.733335"
   version="1.1"
   id="svg3719"
   sodipodi:docname="Mboard_bg.svg"
   inkscape:version="1.2.2 (b0a84865, 2022-12-01)"
   inkscape:export-filename="Mboard.png"
   inkscape:export-xdpi="192"
   inkscape:export-ydpi="192"
   xmlns:inkscape="http://www.inkscape.org/namespaces/inkscape"
   xmlns:sodipodi="http://sodipodi.sourceforge.net/DTD/sodipodi-0.dtd"
   xmlns:xlink="http://www.w3.org/1999/xlink"
   xmlns="http://www.w3.org/2000/svg"
   xmlns:svg="http://www.w3.org/2000/svg"
   xmlns:rdf="http://www.w3.org/1999/02/22-rdf-syntax-ns#"
   xmlns:cc="http://creativecommons.org/ns#"
   xmlns:dc="http://purl.org/dc/elements/1.1/">
  <defs
     id="defs3713">
    <linearGradient
       inkscape:collect="always"
       id="linearGradient5622">
      <stop
         style="stop-color:#000000;stop-opacity:0.1254902;"
         offset="0"
         id="stop5618" />
      <stop
         style="stop-color:#000000;stop-opacity:0;"
         offset="1"
         id="stop5620" />
    </linearGradient>
    <filter
       style="color-interpolation-filters:sRGB"
       inkscape:label="Drop Shadow"
       id="filter5533"
       x="-0.034285715"
       y="-0.048979593"
       width="1.0757143"
       height="1.1081633">
      <feFlood
         flood-opacity="0.498039"
         flood-color="rgb(0,0,0)"
         result="flood"
         id="feFlood5523" />
      <feComposite
         in="flood"
         in2="SourceGraphic"
         operator="in"
         result="composite1"
         id="feComposite5525" />
      <feGaussianBlur
         in="composite1"
         stdDeviation="0.20000000000000001"
         result="blur"
         id="feGaussianBlur5527" />
      <feOffset
         dx="0.1"
         dy="0.1"
         result="offset"
         id="feOffset5529" />
      <feComposite
         in="SourceGraphic"
         in2="offset"
         operator="over"
         result="composite2"
         id="feComposite5531" />
    </filter>
    <filter
       style="color-interpolation-filters:sRGB"
       inkscape:label="Drop Shadow"
       id="filter888"
       x="-0.074131274"
       y="-0.085714286"
       width="1.1791506"
       height="1.1714286">
      <feFlood
         flood-opacity="0.25"
         flood-color="rgb(0,0,0)"
         result="flood"
         id="feFlood878" />
      <feComposite
         in="flood"
         in2="SourceGraphic"
         operator="in"
         result="composite1"
         id="feComposite880" />
      <feGaussianBlur
         in="composite1"
         stdDeviation="0.5"
         result="blur"
         id="feGaussianBlur882" />
      <feOffset
         dx="0.5"
         dy="0"
         result="offset"
         id="feOffset884" />
      <feComposite
         in="SourceGraphic"
         in2="offset"
         operator="over"
         result="composite2"
         id="feComposite886" />
    </filter>
    <linearGradient
       inkscape:collect="always"
       xlink:href="#linearGradient5622"
       id="linearGradient5624"
       x1="36.362003"
       y1="212.81487"
       x2="50.799995"
       y2="250.43333"
       gradientUnits="userSpaceOnUse"
       gradientTransform="translate(0,-21.166667)" />
    <clipPath
       clipPathUnits="userSpaceOnUse"
       id="clipPath2477">
      <path
         style="fill:#e1e1e1;fill-opacity:1;stroke:none;stroke-width:0.264583px;stroke-linecap:butt;stroke-linejoin:miter;stroke-opacity:1"
         d="m 33.866667,205.80691 24.143517,23.45975 h 9.723147 V 161.53333 H 41.87417 l -8.007506,23.42936 z"
         id="path2479"
         sodipodi:nodetypes="ccccccc" />
    </clipPath>
  </defs>
  <sodipodi:namedview
     id="base"
     pagecolor="#ffffff"
     bordercolor="#666666"
     borderopacity="1.0"
     inkscape:pageopacity="0.0"
     inkscape:pageshadow="2"
     inkscape:zoom="1.2985711"
     inkscape:cx="169.03195"
     inkscape:cy="149.78002"
     inkscape:document-units="mm"
     inkscape:current-layer="layer1"
     showgrid="false"
     units="px"
     inkscape:measure-start="0,0"
     inkscape:measure-end="0,0"
     inkscape:snap-page="false"
     inkscape:window-width="1511"
     inkscape:window-height="1295"
     inkscape:window-x="1049"
     inkscape:window-y="25"
     inkscape:window-maximized="0"
     inkscape:snap-object-midpoints="true"
     inkscape:showpageshadow="0"
     inkscape:pagecheckerboard="1"
     inkscape:deskcolor="#d1d1d1" />
  <metadata
     id="metadata3716">
    <rdf:RDF>
      <cc:Work
         rdf:about="">
        <dc:format>image/svg+xml</dc:format>
        <dc:type
           rdf:resource="http://purl.org/dc/dcmitype/StillImage" />
      </cc:Work>
    </rdf:RDF>
  </metadata>
  <g
     inkscape:label="Layer 1"
     inkscape:groupmode="layer"
     id="layer1"
     transform="translate(0,-161.53332)">
    <rect
       style="fill:#1f3d70;stroke:none;stroke-width:3.175;stroke-opacity:0.8;paint-order:stroke markers fill;fill-opacity:1"
       id="rect5515"
       width="67.73333"
       height="67.73333"
       x="0"
       y="161.53333" />
    <g
       id="g3416"
       transform="matrix(4.064,0,0,4.064,-14.901332,153.91545)"
       style="fill:#000000;fill-opacity:1;stroke:none">
      <g
         id="g3388"
         style="fill:#000000;fill-opacity:1;stroke:none">
        <path
           id="rect3365"
           style="fill:#000000;fill-opacity:1;stroke:none;stroke-width:0.5625;stroke-opacity:0.8;paint-order:stroke markers fill"
           d="m 7.3087913,9.8562498 h 0.9824163 c 0.1156706,0 0.2087918,0.093121 0.2087918,0.2087922 v 0.982416 c 0,0.115671 -0.093121,0.208792 -0.2087918,0.208792 H 7.3087913 c -0.1156707,0 -0.2087919,-0.09312 -0.2087919,-0.208792 v -0.982416 c 0,-0.115671 0.093121,-0.2087922 0.2087919,-0.2087922 z" />
        <path
           id="rect3362"
           style="fill:#000000;fill-opacity:1;stroke:none;stroke-width:0.5625;stroke-opacity:0.8;paint-order:stroke markers fill"
           d="m 9.4087917,9.8562508 h 0.9824163 c 0.115671,0 0.208792,0.093121 0.208792,0.2087922 v 0.982416 c 0,0.115671 -0.09312,0.208792 -0.208792,0.208792 H 9.4087917 c -0.1156707,0 -0.2087919,-0.09312 -0.2087919,-0.208792 v -0.982416 c 0,-0.1156711 0.093121,-0.2087922 0.2087919,-0.2087922 z" />
        <path
           id="rect3359"
           style="fill:#000000;fill-opacity:1;stroke:none;stroke-width:0.5625;stroke-opacity:0.8;paint-order:stroke markers fill"
           d="m 11.508792,9.8562508 h 0.982416 c 0.115671,0 0.208792,0.093121 0.208792,0.2087922 v 0.982416 c 0,0.115671 -0.09312,0.208792 -0.208792,0.208792 H 11.508792 C 11.393121,11.256251 11.3,11.16313 11.3,11.047459 v -0.982416 c 0,-0.1156711 0.09312,-0.2087922 0.208792,-0.2087922 z" />
        <path
           id="rect3356"
           style="fill:#000000;fill-opacity:1;stroke:none;stroke-width:0.5625;stroke-opacity:0.8;paint-order:stroke markers fill"
           d="m 13.608792,9.8562508 h 0.982417 c 0.11567,0 0.208792,0.093121 0.208792,0.2087922 v 0.982416 c 0,0.115671 -0.09312,0.208792 -0.208792,0.208792 h -0.982417 c -0.11567,0 -0.208791,-0.09312 -0.208791,-0.208792 v -0.982416 c 0,-0.1156711 0.09312,-0.2087922 0.208791,-0.2087922 z" />
        <path
           id="rect3353"
           style="fill:#000000;fill-opacity:1;stroke:none;stroke-width:0.5625;stroke-opacity:0.8;paint-order:stroke markers fill"
           d="m 15.708792,9.8562508 h 0.982416 c 0.115671,0 0.208792,0.093121 0.208792,0.2087922 v 0.982416 c 0,0.115671 -0.09312,0.208792 -0.208792,0.208792 H 15.708792 C 15.593121,11.256251 15.5,11.16313 15.5,11.047459 v -0.982416 c 0,-0.1156711 0.09312,-0.2087922 0.208792,-0.2087922 z" />
        <path
           id="rect3350"
           style="fill:#000000;fill-opacity:1;stroke:none;stroke-width:0.5625;stroke-opacity:0.8;paint-order:stroke markers fill"
           d="M 7.3087918,11.956249 H 8.291208 c 0.1156707,0 0.2087919,0.09312 0.2087919,0.208792 v 0.982416 c 0,0.115671 -0.093121,0.208792 -0.2087919,0.208792 H 7.3087918 c -0.1156707,0 -0.2087919,-0.09312 -0.2087919,-0.208792 v -0.982416 c 0,-0.115671 0.093121,-0.208792 0.2087919,-0.208792 z" />
        <path
           id="rect3347"
           style="fill:#000000;fill-opacity:1;stroke:none;stroke-width:0.5625;stroke-opacity:0.8;paint-order:stroke markers fill"
           d="m 9.4087917,11.95625 h 0.9824163 c 0.115671,0 0.208792,0.09312 0.208792,0.208792 v 0.982416 c 0,0.115671 -0.09312,0.208792 -0.208792,0.208792 H 9.4087917 c -0.1156707,0 -0.2087919,-0.09312 -0.2087919,-0.208792 v -0.982416 c 0,-0.115671 0.093121,-0.208792 0.2087919,-0.208792 z" />
        <path
           id="rect3344"
           style="fill:#000000;fill-opacity:1;stroke:none;stroke-width:0.5625;stroke-opacity:0.8;paint-order:stroke markers fill"
           d="m 11.508792,11.95625 h 0.982416 c 0.115671,0 0.208792,0.09312 0.208792,0.208792 v 0.982416 c 0,0.115671 -0.09312,0.208792 -0.208792,0.208792 H 11.508792 C 11.393121,13.35625 11.3,13.263129 11.3,13.147458 v -0.982416 c 0,-0.115671 0.09312,-0.208792 0.208792,-0.208792 z" />
        <path
           id="rect3341"
           style="fill:#000000;fill-opacity:1;stroke:none;stroke-width:0.5625;stroke-opacity:0.8;paint-order:stroke markers fill"
           d="m 13.608792,11.95625 h 0.982417 c 0.11567,0 0.208792,0.09312 0.208792,0.208792 v 0.982416 c 0,0.115671 -0.09312,0.208792 -0.208792,0.208792 h -0.982417 c -0.11567,0 -0.208791,-0.09312 -0.208791,-0.208792 v -0.982416 c 0,-0.115671 0.09312,-0.208792 0.208791,-0.208792 z" />
        <path
           id="rect3338"
           style="fill:#000000;fill-opacity:1;stroke:none;stroke-width:0.5625;stroke-opacity:0.8;paint-order:stroke markers fill"
           d="m 15.708792,11.95625 h 0.982416 c 0.115671,0 0.208792,0.09312 0.208792,0.208792 v 0.982416 c 0,0.115671 -0.09312,0.208792 -0.208792,0.208792 H 15.708792 C 15.593121,13.35625 15.5,13.263129 15.5,13.147458 v -0.982416 c 0,-0.115671 0.09312,-0.208792 0.208792,-0.208792 z" />
      </g>
      <path
         id="rect3335"
         style="fill:#000000;fill-opacity:1;stroke:none;stroke-width:0.5625;stroke-opacity:0.8;paint-order:stroke markers fill"
         d="m 8.4712917,14.1 h 7.0574163 c 0.115671,0 0.208792,0.09312 0.208792,0.208792 v 0.982416 C 15.7375,15.406879 15.644379,15.5 15.528708,15.5 H 8.4712917 C 8.355621,15.5 8.2624998,15.406879 8.2624998,15.291208 V 14.308792 C 8.2624998,14.193122 8.355621,14.1 8.4712917,14.1 Z" />
    </g>
  </g>
</svg>
